<?xml version="1.0" standalone="no"?>
<!DOCTYPE svg PUBLIC "-//W3C//DTD SVG 1.1//EN" "http://www.w3.org/Graphics/SVG/1.1/DTD/svg11.dtd">
<!--Generator: Xara Designer (www.xara.com), SVG filter version: 6.7.0.0-->
<svg fill="none" fill-rule="evenodd" stroke="black" stroke-width="0.501" stroke-linejoin="bevel" stroke-miterlimit="10" font-family="Times New Roman" font-size="16" style="font-variant-ligatures:none" xmlns:xlink="http://www.w3.org/1999/xlink" xmlns="http://www.w3.org/2000/svg" version="1.1" overflow="visible" width="87.82pt" height="84.681pt" viewBox="2.249 -89.931 87.82 84.681">
 <defs>
	</defs>
 <g id="Layer 1" transform="scale(1 -1)">
  <path d="M 90.066,77.478 L 45.192,77.477 L 45.192,89.928 L 90.069,89.931 Z" fill="#ffffff" stroke="none" stroke-width="0.75" fill-rule="nonzero" stroke-linejoin="miter" marker-start="none" marker-end="none"/>
  <rect x="-22.5779195232865" y="-7.14531402389006" width="45.1558390465729" height="14.2906280477801" rx="0" ry="0" transform="matrix(0.707108 0.707108 -0.707108 0.707108 64.509 64.431)" fill="#ffffff" fill-rule="nonzero" stroke-linejoin="miter" stroke="none" stroke-width="0.75"/>
  <path d="M 89.981,89.919 L 89.997,45.046 L 77.556,45.037 L 77.544,89.922 Z" fill="#ffffff" stroke="none" stroke-width="0.75" fill-rule="nonzero" stroke-linejoin="miter" marker-start="none" marker-end="none"/>
  <rect x="-6.3745" y="-32.6245" width="12.749" height="65.249" rx="0" ry="0" transform="matrix(1 0 0 1 8.624 39.749)" fill="#ffffff" fill-rule="nonzero" stroke-linejoin="miter" stroke="none" stroke-width="0.75"/>
  <rect x="-6.3745" y="-13.8525" width="12.749" height="27.705" rx="0" ry="0" transform="matrix(1 0 0 1 71.24 19.102)" fill="#ffffff" fill-rule="nonzero" stroke-linejoin="miter" stroke="none" stroke-width="0.75"/>
  <rect x="-15.2455" y="-6.3745" width="30.491" height="12.749" rx="0" ry="0" transform="matrix(1 0 0 1 17.494 71.105)" fill="#ffffff" fill-rule="nonzero" stroke-linejoin="miter" stroke="none" stroke-width="0.75"/>
  <rect x="-37.6835" y="-6.3745" width="75.367" height="12.749" rx="0" ry="0" transform="matrix(1 0 0 1 39.932 11.624)" fill="#ffffff" fill-rule="nonzero" stroke-linejoin="miter" stroke="none" stroke-width="0.75"/>
 </g>
</svg>
