<?xml version="1.0" standalone="no"?>
<!DOCTYPE svg PUBLIC "-//W3C//DTD SVG 1.1//EN" "http://www.w3.org/Graphics/SVG/1.1/DTD/svg11.dtd">
<!--Generator: Xara Designer (www.xara.com), SVG filter version: 6.7.0.0-->
<svg fill="none" fill-rule="evenodd" stroke="black" stroke-width="0.501" stroke-linejoin="bevel" stroke-miterlimit="10" font-family="Times New Roman" font-size="16" style="font-variant-ligatures:none" xmlns:xlink="http://www.w3.org/1999/xlink" xmlns="http://www.w3.org/2000/svg" version="1.1" overflow="visible" width="24pt" height="24.801pt" viewBox="35.988 -576.4 24 24.801">
 <defs>
	</defs>
 <g id="Layer 1" transform="scale(1 -1)">
  <path d="M 45.776,560.295 L 52.594,558.465 L 52.798,558.403 L 52.818,558.403 L 53.814,558.383 C 54.032,558.559 54.194,558.851 54.304,559.257 L 57.254,570.227 C 57.472,571.027 57.18,571.535 56.38,571.753 L 56.358,571.753 L 53.246,572.607 L 53.144,572.649 L 52.858,572.689 L 49.338,573.667 L 49.358,573.667 C 48.57,573.883 48.068,573.585 47.852,572.771 L 47.852,572.791 L 47.262,570.471 L 47.222,570.349 L 44.942,561.801 C 44.724,561.015 45.002,560.513 45.776,560.295 M 50.824,553.885 L 43.782,551.993 C 41.434,551.369 39.942,552.229 39.304,554.577 L 36.374,565.567 C 35.764,567.913 36.626,569.405 38.958,570.043 L 42.48,570.979 L 42.622,571.001 L 42.866,571.101 L 45.064,571.671 L 45.512,573.381 L 45.512,573.401 C 46.122,575.763 47.614,576.631 49.988,576.007 L 53.51,575.029 L 53.632,574.989 L 53.896,574.949 L 57.01,574.093 C 59.356,573.483 60.218,571.983 59.594,569.595 L 56.644,558.627 C 56.332,557.473 55.796,556.693 55.036,556.287 C 54.574,555.987 54.024,555.845 53.388,555.859 C 53.02,554.909 52.166,554.251 50.824,553.885" fill="#ffffff" stroke="#ffffff" fill-rule="nonzero" stroke-linejoin="miter" stroke-width="0.408"/>
 </g>
</svg>
